<svg width="21" height="20" viewBox="0 0 21 20" fill="none" xmlns="http://www.w3.org/2000/svg">
<g clip-path="url(#clip0_3758_14361)">
<path d="M20.668 10C20.668 15.5228 16.1907 20 10.668 20C5.14575 20 0.667969 15.5228 0.667969 10C0.667969 4.47778 5.14575 0 10.668 0C16.1907 0 20.668 4.47778 20.668 10Z" fill="#FFCC4D"/>
<path d="M7.05686 11.1076C7.82392 11.1076 8.44575 10.2371 8.44575 9.16319C8.44575 8.08931 7.82392 7.21875 7.05686 7.21875C6.2898 7.21875 5.66797 8.08931 5.66797 9.16319C5.66797 10.2371 6.2898 11.1076 7.05686 11.1076Z" fill="#664500"/>
<path d="M14.2795 11.1076C15.0466 11.1076 15.6684 10.2371 15.6684 9.16319C15.6684 8.08931 15.0466 7.21875 14.2795 7.21875C13.5125 7.21875 12.8906 8.08931 12.8906 9.16319C12.8906 10.2371 13.5125 11.1076 14.2795 11.1076Z" fill="#664500"/>
<path d="M7.33398 15.5561C8.4451 12.7784 14.5562 12.7784 14.5562 13.8895C14.5562 14.445 10.1118 13.3339 7.33398 15.5561Z" fill="#664500"/>
</g>
<defs>
<clipPath id="clip0_3758_14361">
<rect width="20" height="20" fill="white" transform="translate(0.667969)"/>
</clipPath>
</defs>
</svg>
