<svg width="21" height="20" viewBox="0 0 21 20" fill="none" xmlns="http://www.w3.org/2000/svg">
<g clip-path="url(#clip0_3758_14437)">
<path d="M10.668 20C16.1908 20 20.668 15.5228 20.668 10C20.668 4.47715 16.1908 0 10.668 0C5.14512 0 0.667969 4.47715 0.667969 10C0.667969 15.5228 5.14512 20 10.668 20Z" fill="#FFCC4D"/>
<path d="M10.6678 11.6696C8.65497 11.6696 7.31942 11.4352 5.66775 11.1141C5.29053 11.0413 4.55664 11.1141 4.55664 12.2252C4.55664 14.4474 7.10942 17.2252 10.6678 17.2252C14.2255 17.2252 16.7789 14.4474 16.7789 12.2252C16.7789 11.1141 16.045 11.0407 15.6678 11.1141C14.0161 11.4352 12.6805 11.6696 10.6678 11.6696Z" fill="#664500"/>
<path d="M5.66797 12.2188C5.66797 12.2188 7.33464 12.7743 10.668 12.7743C14.0013 12.7743 15.668 12.2188 15.668 12.2188C15.668 12.2188 14.5569 14.441 10.668 14.441C6.77908 14.441 5.66797 12.2188 5.66797 12.2188Z" fill="white"/>
<path d="M7.3342 9.44358C8.10126 9.44358 8.72309 8.57302 8.72309 7.49913C8.72309 6.42524 8.10126 5.55469 7.3342 5.55469C6.56714 5.55469 5.94531 6.42524 5.94531 7.49913C5.94531 8.57302 6.56714 9.44358 7.3342 9.44358Z" fill="#664500"/>
<path d="M14.0022 9.44358C14.7692 9.44358 15.3911 8.57302 15.3911 7.49913C15.3911 6.42524 14.7692 5.55469 14.0022 5.55469C13.2351 5.55469 12.6133 6.42524 12.6133 7.49913C12.6133 8.57302 13.2351 9.44358 14.0022 9.44358Z" fill="#664500"/>
</g>
<defs>
<clipPath id="clip0_3758_14437">
<rect width="20" height="20" fill="white" transform="translate(0.667969)"/>
</clipPath>
</defs>
</svg>
