<svg width="21" height="20" viewBox="0 0 21 20" fill="none" xmlns="http://www.w3.org/2000/svg">
<g clip-path="url(#clip0_3758_14387)">
<path d="M20.168 10C20.168 15.5228 15.6907 20 10.168 20C4.64519 20 0.167969 15.5228 0.167969 10C0.167969 4.47722 4.64519 0 10.168 0C15.6907 0 20.168 4.47722 20.168 10Z" fill="#FFCC4D"/>
<path d="M15.8975 8.67567C15.8497 8.63741 15.7906 8.61593 15.7294 8.61453C15.6682 8.61312 15.6082 8.63187 15.5586 8.66789C15.552 8.67289 14.8581 9.169 13.502 9.169C12.1464 9.169 11.452 8.67289 11.4464 8.669C11.3972 8.63209 11.3372 8.61255 11.2757 8.61344C11.2142 8.61433 11.1547 8.6356 11.1066 8.67391C11.0585 8.71223 11.0245 8.76543 11.0099 8.82517C10.9952 8.8849 11.0009 8.9478 11.0258 9.004C11.0592 9.079 11.8592 10.8357 13.502 10.8357C15.1453 10.8357 15.9447 9.079 15.9781 9.004C16.0028 8.94807 16.0083 8.88551 15.9938 8.8261C15.9792 8.76669 15.9453 8.71379 15.8975 8.67567ZM8.89195 8.66789C8.88529 8.67289 8.19195 9.169 6.83529 9.169C5.47918 9.169 4.78529 8.67289 4.77973 8.669C4.73054 8.63209 4.67049 8.61255 4.609 8.61344C4.5475 8.61433 4.48804 8.6356 4.43994 8.67391C4.39184 8.71223 4.35781 8.76543 4.34319 8.82517C4.32858 8.8849 4.3342 8.9478 4.35918 9.004C4.39251 9.079 5.19251 10.8357 6.83529 10.8357C8.47862 10.8357 9.27807 9.079 9.3114 9.004C9.33593 8.94793 9.34129 8.88533 9.32666 8.8259C9.31202 8.76647 9.27821 8.71353 9.23044 8.67525C9.18268 8.63698 9.12364 8.61552 9.06245 8.61419C9.00126 8.61286 8.94133 8.63173 8.89195 8.66789ZM16.2803 7.22456C16.1939 7.22473 16.1087 7.20473 16.0315 7.16615C15.9542 7.12757 15.887 7.07147 15.8353 7.00234C14.3953 5.08234 11.9681 5.54234 11.9442 5.54678C11.8726 5.56127 11.7989 5.56148 11.7273 5.54742C11.6557 5.53335 11.5875 5.50528 11.5268 5.46481C11.466 5.42434 11.4139 5.37228 11.3733 5.3116C11.3327 5.25092 11.3045 5.18283 11.2903 5.11122C11.2615 4.96677 11.2912 4.81679 11.3728 4.6942C11.4545 4.57161 11.5814 4.48642 11.7258 4.45734C11.8542 4.43122 14.8686 3.86178 16.7236 6.33511C16.7856 6.41757 16.8234 6.51567 16.8328 6.61842C16.8422 6.72116 16.8228 6.82449 16.7768 6.91683C16.7308 7.00917 16.66 7.08687 16.5723 7.14122C16.4846 7.19557 16.3835 7.22443 16.2803 7.22456ZM4.05695 7.22456C3.95383 7.22445 3.85277 7.19565 3.76508 7.14137C3.6774 7.08708 3.60655 7.00947 3.56048 6.91721C3.51441 6.82494 3.49492 6.72168 3.50421 6.61897C3.5135 6.51626 3.55119 6.41817 3.61306 6.33567C5.46806 3.86122 8.48307 4.43234 8.61084 4.45789C8.75047 4.49153 8.87168 4.57788 8.94907 4.69886C9.02647 4.81985 9.05405 4.96609 9.02605 5.10696C8.99805 5.24783 8.91663 5.3724 8.79885 5.45459C8.68107 5.53678 8.53606 5.57021 8.39418 5.54789C8.29084 5.52845 5.92973 5.099 4.50195 7.00234C4.45021 7.07147 4.38303 7.12757 4.30577 7.16615C4.22851 7.20473 4.14331 7.22473 4.05695 7.22456ZM13.0875 13.1007C13.0357 13.0707 12.9758 13.0578 12.9163 13.0638C12.8568 13.0698 12.8006 13.0943 12.7558 13.134C12.7503 13.1384 12.1931 13.6134 10.1686 13.6134C8.14584 13.6134 7.58751 13.139 7.58751 13.139C7.54452 13.0962 7.48869 13.0686 7.42857 13.0606C7.36844 13.0525 7.30732 13.0643 7.25454 13.0942C7.20176 13.1241 7.16023 13.1705 7.13629 13.2262C7.11235 13.282 7.10731 13.344 7.12195 13.4029C7.12751 13.4273 7.75751 15.8357 10.1686 15.8357C12.5797 15.8357 13.2097 13.4273 13.2158 13.4029C13.2296 13.3454 13.2246 13.285 13.2015 13.2306C13.1784 13.1762 13.1384 13.1307 13.0875 13.1007Z" fill="#664500"/>
</g>
<defs>
<clipPath id="clip0_3758_14387">
<rect width="20" height="20" fill="white" transform="translate(0.167969)"/>
</clipPath>
</defs>
</svg>
