<svg width="23" height="22" viewBox="0 0 23 22" fill="none" xmlns="http://www.w3.org/2000/svg">
<g clip-path="url(#clip0_3758_14333)">
<path d="M22.168 11C22.168 17.0751 17.243 22 11.168 22C5.09352 22 0.167969 17.0751 0.167969 11C0.167969 4.92556 5.09352 0 11.168 0C17.243 0 22.168 4.92556 22.168 11Z" fill="#FFCC4D"/>
<path d="M7.19575 12.2231C8.03951 12.2231 8.72352 11.2655 8.72352 10.0842C8.72352 8.90293 8.03951 7.94531 7.19575 7.94531C6.35198 7.94531 5.66797 8.90293 5.66797 10.0842C5.66797 11.2655 6.35198 12.2231 7.19575 12.2231Z" fill="#664500"/>
<path d="M15.1411 12.2231C15.9848 12.2231 16.6688 11.2655 16.6688 10.0842C16.6688 8.90293 15.9848 7.94531 15.1411 7.94531C14.2973 7.94531 13.6133 8.90293 13.6133 10.0842C13.6133 11.2655 14.2973 12.2231 15.1411 12.2231Z" fill="#664500"/>
<path d="M14.5209 17.0354C14.5141 17.0085 13.8211 14.3594 11.1689 14.3594C8.51669 14.3594 7.82369 17.0085 7.81697 17.0354C7.80177 17.0987 7.80736 17.1652 7.83289 17.2251C7.85842 17.285 7.90255 17.335 7.95875 17.3679C8.01556 17.401 8.08139 17.4152 8.14681 17.4086C8.21223 17.4021 8.27389 17.375 8.32297 17.3312C8.32847 17.3269 8.94202 16.8038 11.1689 16.8038C13.3628 16.8038 13.9904 17.311 14.0142 17.3312C14.0615 17.3766 14.1221 17.4055 14.1871 17.4135C14.2521 17.4216 14.318 17.4083 14.3748 17.3758C14.4331 17.3429 14.4789 17.2918 14.5053 17.2303C14.5317 17.1688 14.5371 17.1003 14.5209 17.0354Z" fill="#664500"/>
<path d="M6.27908 18.3299C6.27908 20.0177 4.91141 21.3854 3.22352 21.3854C1.53564 21.3854 0.167969 20.0177 0.167969 18.3299C0.167969 16.642 2.61241 12.2188 3.22352 12.2188C3.83464 12.2188 6.27908 16.642 6.27908 18.3299Z" fill="#5DADEC"/>
<path d="M18.5004 7.94175C15.1063 7.94175 13.7325 5.27303 13.6757 5.15936C13.6029 5.01455 13.5905 4.84672 13.6414 4.69281C13.6923 4.53889 13.8022 4.41149 13.947 4.33864C14.0919 4.26579 14.2597 4.25345 14.4136 4.30433C14.5675 4.35522 14.6949 4.46516 14.7678 4.60997C14.8136 4.6992 15.8806 6.71953 18.5004 6.71953C18.6625 6.71953 18.8179 6.78392 18.9326 6.89852C19.0472 7.01313 19.1115 7.16856 19.1115 7.33064C19.1115 7.49272 19.0472 7.64816 18.9326 7.76276C18.8179 7.87737 18.6625 7.94175 18.5004 7.94175ZM3.83377 7.94175C3.67169 7.94175 3.51625 7.87737 3.40165 7.76276C3.28704 7.64816 3.22266 7.49272 3.22266 7.33064C3.22266 7.16856 3.28704 7.01313 3.40165 6.89852C3.51625 6.78392 3.67169 6.71953 3.83377 6.71953C6.94005 6.71953 7.49799 4.81286 7.5206 4.73159C7.60921 4.40892 7.94227 4.21336 8.26554 4.29831C8.58943 4.38325 8.7856 4.70959 8.70432 5.0347C8.67438 5.15325 7.93066 7.94175 3.83377 7.94175Z" fill="#664500"/>
</g>
<defs>
<clipPath id="clip0_3758_14333">
<rect width="22" height="22" fill="white" transform="translate(0.167969)"/>
</clipPath>
</defs>
</svg>
