<svg width="23" height="22" viewBox="0 0 23 22" fill="none" xmlns="http://www.w3.org/2000/svg">
<g clip-path="url(#clip0_3758_14411)">
<path d="M11.168 22C17.2431 22 22.168 17.0751 22.168 11C22.168 4.92487 17.2431 0 11.168 0C5.09284 0 0.167969 4.92487 0.167969 11C0.167969 17.0751 5.09284 22 11.168 22Z" fill="#FFCC4D"/>
<path d="M6.59317 14.4341C6.62067 14.5435 7.30695 17.1102 11.1673 17.1102C15.0283 17.1102 15.714 14.5435 15.7415 14.4341C15.7576 14.3696 15.7521 14.3017 15.726 14.2405C15.6998 14.1794 15.6544 14.1285 15.5967 14.0956C15.5387 14.0628 15.4716 14.0497 15.4055 14.0581C15.3394 14.0666 15.2779 14.0963 15.23 14.1426C15.2184 14.1543 14.0359 15.2769 11.1673 15.2769C8.29878 15.2769 7.11567 14.1543 7.10467 14.1433C7.05736 14.0965 6.99613 14.0664 6.93022 14.0575C6.8643 14.0485 6.79727 14.0613 6.73923 14.0938C6.68097 14.1267 6.63513 14.1778 6.60874 14.2393C6.58236 14.3008 6.57689 14.3692 6.59317 14.4341Z" fill="#664500"/>
<path d="M7.50043 10.3872C8.3442 10.3872 9.02821 9.42954 9.02821 8.24826C9.02821 7.06699 8.3442 6.10938 7.50043 6.10938C6.65667 6.10938 5.97266 7.06699 5.97266 8.24826C5.97266 9.42954 6.65667 10.3872 7.50043 10.3872Z" fill="#664500"/>
<path d="M14.8344 10.3872C15.6782 10.3872 16.3622 9.42954 16.3622 8.24826C16.3622 7.06699 15.6782 6.10938 14.8344 6.10938C13.9906 6.10938 13.3066 7.06699 13.3066 8.24826C13.3066 9.42954 13.9906 10.3872 14.8344 10.3872Z" fill="#664500"/>
</g>
<defs>
<clipPath id="clip0_3758_14411">
<rect width="22" height="22" fill="white" transform="translate(0.167969)"/>
</clipPath>
</defs>
</svg>
